#!OML:ASF E:\Style6\Style6.ASF
:FULLY-SPECIFIED
:DEGREES
3742
root 0.519282 17.4197 1.56838 9.13548 15.9252 -6.05378
lowerback 2.19347 0.0208908 1.90345
upperback -5.47239 0.196352 0.732375
thorax -6.9245 0.0228378 -0.318454
lowerneck -10.8718 1.2381 2.66494
upperneck 13.2376 2.1434 -5.979
head 5.8847 0.731137 -2.15072
rclavicle -2.3177e-014 -3.53837e-014
rhumerus -67.5136 15.731 -92.6886
rradius 113.722
rwrist -10.0004
rhand 49.706 -2.06191
rfingers 7.12502
rthumb 69.758 1.44611
lclavicle -2.3177e-014 -3.53837e-014
lhumerus -71.5454 -21.9482 98.5622
lradius 117.12
lwrist 25.7305
lhand 20.8686 43.0703
lfingers 7.12502
lthumb 45.3434 66.4333
rfemur -20.8522 -14.7591 26.9569
rtibia 35.1938
rfoot -18.2651 -11.7518
rtoes -12.845
lfemur -28.4807 -3.01382 -9.9906
ltibia 43.4229
lfoot -19.5773 -2.1163
ltoes -19.8429
3743
root 0.523648 17.4236 1.57031 9.12603 15.7879 -6.06225
lowerback 2.1972 0.021013 1.96761
upperback -5.44605 0.20031 0.744628
thorax -6.89854 0.0219225 -0.341961
lowerneck -10.8502 1.2659 2.62672
upperneck 13.1064 2.16631 -5.88194
head 5.83943 0.749423 -2.11089
rclavicle 1.93815e-014 1.94809e-014
rhumerus -67.6993 15.7748 -92.5283
rradius 113.848
rwrist -10.4788
rhand 49.3148 -2.39057
rfingers 7.12502
rthumb 69.4968 0.333163
lclavicle 1.93815e-014 1.94809e-014
lhumerus -71.6597 -21.9583 98.544
lradius 117.134
lwrist 25.8287
lhand 20.7939 43.1231
lfingers 7.12502
lthumb 45.2739 66.5139
rfemur -20.7762 -14.7308 26.9282
rtibia 35.0855
rfoot -18.1953 -11.6488
rtoes -12.7584
lfemur -28.4006 -2.93397 -10.0143
ltibia 43.3968
lfoot -19.5441 -2.13376
ltoes -19.4759
3744
root 0.526528 17.4258 1.57157 9.13285 15.637 -6.11464
lowerback 2.20949 0.0287892 2.05277
upperback -5.42751 0.217304 0.775452
thorax -6.88572 0.026797 -0.358886
lowerneck -10.9057 1.29636 2.60744
upperneck 13.0444 2.19882 -5.82874
head 5.8302 0.767942 -2.08764
rclavicle -1.92386e-014 -1.98785e-015
rhumerus -67.8218 15.7993 -92.2949
rradius 113.999
rwrist -11.0162
rhand 49.256 -2.79368
rfingers 7.12502
rthumb 69.4572 -0.186014
lclavicle -1.92386e-014 -1.98785e-015
lhumerus -71.7638 -21.9852 98.5704
lradius 117.134
lwrist 25.8387
lhand 20.6088 43.0605
lfingers 7.12502
lthumb 45.1018 66.5198
rfemur -20.7449 -14.6781 26.9649
rtibia 34.994
rfoot -18.0516 -11.6891
rtoes -13.5733
lfemur -28.3485 -2.83552 -9.98561
ltibia 43.3606
lfoot -19.5369 -2.19515
ltoes -18.8063
3745
root 0.527916 17.4285 1.57343 9.09247 15.551 -6.1331
lowerback 2.30762 0.0161311 2.09321
upperback -5.41176 0.205459 0.784494
thorax -6.92618 0.0186573 -0.371215
lowerneck -10.9497 1.30918 2.66194
upperneck 12.982 2.19943 -5.80571
head 5.81843 0.772541 -2.08883
rclavicle -1.6642e-014 2.78299e-015
rhumerus -68.0016 15.8258 -92.2076
rradius 114.108
rwrist -11.3085
rhand 48.7924 -2.95876
rfingers 7.12502
rthumb 69.142 -1.25071
lclavicle -1.6642e-014 2.78299e-015
lhumerus -71.9296 -22.0384 98.577
lradius 117.191
lwrist 25.8562
lhand 20.4282 42.9727
lfingers 7.12502
lthumb 44.9338 66.4983
rfemur -20.6572 -14.6305 26.9565
rtibia 34.9256
rfoot -18.0091 -11.6758
rtoes -13.3906
lfemur -28.2528 -2.79382 -9.9809
ltibia 43.3191
lfoot -19.5246 -2.27207
ltoes -18.2124
3746
root 0.527914 17.4302 1.57366 9.05498 15.4565 -6.05158
lowerback 2.44569 -0.0124686 1.99539
upperback -5.39118 0.164237 0.781692
thorax -6.98502 0.00293756 -0.316051
lowerneck -11.0338 1.32143 2.69813
upperneck 13.0074 2.20063 -5.74653
head 5.84051 0.777533 -2.07588
rclavicle -2.42269e-015 3.97569e-015
rhumerus -68.2063 15.8142 -92.1655
rradius 114.158
rwrist -11.3714
rhand 48.1749 -2.65934
rfingers 7.12502
rthumb 68.714 -2.10661
lclavicle -2.42269e-015 3.97569e-015
lhumerus -72.0486 -22.0562 98.5382
lradius 117.223
lwrist 25.8663
lhand 20.4174 42.9114
lfingers 7.12502
lthumb 44.9237 66.4409
rfemur -20.5679 -14.5638 26.8408
rtibia 34.883
rfoot -18.0167 -11.598
rtoes -12.6091
lfemur -28.1407 -2.78005 -10.081
ltibia 43.2742
lfoot -19.4947 -2.24433
ltoes -18.1716
3747
root 0.53053 17.433 1.57283 8.96699 15.3013 -6.01481
lowerback 2.62691 -0.0391327 1.96123
upperback -5.36338 0.132505 0.815673
thorax -7.06122 -0.0104852 -0.258748
lowerneck -11.1176 1.32994 2.67476
upperneck 13.1049 2.21574 -5.72135
head 5.88566 0.783065 -2.06313
rclavicle 3.50544e-014 -1.11319e-014
rhumerus -68.3163 15.9233 -92.0164
rradius 114.219
rwrist -11.5825
rhand 47.7588 -2.62073
rfingers 7.12502
rthumb 68.4207 -2.81992
lclavicle 3.50544e-014 -1.11319e-014
lhumerus -72.1186 -21.9361 98.5179
lradius 117.243
lwrist 25.8728
lhand 20.4519 42.9926
lfingers 7.12502
lthumb 44.9558 66.5096
rfemur -20.445 -14.4896 26.7418
rtibia 34.8497
rfoot -18.0031 -11.4903
rtoes -12.2963
lfemur -27.9638 -2.7199 -10.1599
ltibia 43.2285
lfoot -19.499 -2.15253
ltoes -18.4414
3748
root 0.534286 17.4351 1.57281 8.96523 15.1358 -6.03995
lowerback 2.68187 -0.0336422 2.00542
upperback -5.36393 0.147269 0.866903
thorax -7.09374 -0.00430751 -0.23121
lowerneck -11.1951 1.32075 2.62572
upperneck 13.2104 2.21541 -5.71932
head 5.93166 0.778121 -2.05485
rclavicle -1.65675e-014 7.95139e-015
rhumerus -68.3294 16.0351 -91.7614
rradius 114.223
rwrist -11.8015
rhand 47.7234 -2.72085
rfingers 7.12502
rthumb 68.3956 -2.98292
lclavicle -1.65675e-014 7.95139e-015
lhumerus -72.2085 -21.8313 98.5479
lradius 117.307
lwrist 25.8449
lhand 20.4137 43.0012
lfingers 7.12502
lthumb 44.9203 66.5321
rfemur -20.441 -14.3777 26.7326
rtibia 34.8291
rfoot -18.0376 -11.3835
rtoes -12.3305
lfemur -27.8993 -2.6194 -10.1667
ltibia 43.1887
lfoot -19.4812 -2.1666
ltoes -18.034
3749
root 0.537992 17.436 1.57315 8.99922 14.9834 -6.0243
lowerback 2.68 -0.0455545 2.01463
upperback -5.31905 0.134345 0.926969
thorax -7.04507 -0.00886099 -0.172664
lowerneck -11.313 1.3395 2.52623
upperneck 13.1937 2.25722 -5.72889
head 5.94775 0.790925 -2.03755
rclavicle -1.65178e-014 -7.15625e-015
rhumerus -68.2827 16.093 -91.4749
rradius 114.195
rwrist -11.8633
rhand 47.9773 -2.63332
rfingers 7.12502
rthumb 68.5752 -2.44018
lclavicle -1.65178e-014 -7.15625e-015
lhumerus -72.1479 -21.7362 98.5478
lradius 117.346
lwrist 25.8976
lhand 20.319 42.9586
lfingers 7.12502
lthumb 44.8321 66.524
rfemur -20.4713 -14.2962 26.6871
rtibia 34.8104
rfoot -18.0457 -11.2494
rtoes -11.8428
lfemur -27.858 -2.54945 -10.2146
ltibia 43.1478
lfoot -19.4504 -2.07309
ltoes -18.0902
3750
root 0.542019 17.4379 1.57297 9.06532 14.8751 -5.9657
lowerback 2.64385 -0.114258 2.0188
upperback -5.25838 0.0432454 0.98525
thorax -6.96094 -0.0515644 -0.106559
lowerneck -11.4699 1.412 2.39931
upperneck 13.1649 2.37587 -5.73643
head 5.96977 0.839272 -2.00826
rclavicle -1.02436e-014 1.78906e-014
rhumerus -68.25 16.2083 -91.3106
rradius 114.226
rwrist -11.8727
rhand 47.8933 -2.49685
rfingers 7.12502
rthumb 68.5159 -2.45526
lclavicle -1.02436e-014 1.78906e-014
lhumerus -71.9796 -21.5415 98.4834
lradius 117.345
lwrist 25.926
lhand 20.2449 42.964
lfingers 7.12502
lthumb 44.7631 66.5563
rfemur -20.5451 -14.3329 26.6122
rtibia 34.8146
rfoot -18.1427 -11.0063
rtoes -10.3798
lfemur -27.8487 -2.47665 -10.3116
ltibia 43.0998
lfoot -19.4483 -1.89942
ltoes -18.8103
3751
root 0.545901 17.441 1.57095 9.11703 14.7645 -5.90767
lowerback 2.6499 -0.147638 2.02152
upperback -5.2387 -0.00103822 0.998876
thorax -6.94421 -0.0730671 -0.0901141
lowerneck -11.5274 1.44282 2.41517
upperneck 13.1741 2.42168 -5.7823
head 5.98533 0.85766 -2.0214
rclavicle -9.61e-015 7.95139e-016
rhumerus -68.2706 16.1923 -91.2447
rradius 114.275
rwrist -11.9123
rhand 47.5164 -2.33999
rfingers 7.12502
rthumb 68.248 -2.9675
lclavicle -9.61e-015 7.95139e-016
lhumerus -71.9066 -21.4412 98.4477
lradius 117.303
lwrist 25.9146
lhand 20.2139 43.0245
lfingers 7.12502
lthumb 44.7343 66.628
rfemur -20.6051 -14.3695 26.5414
rtibia 34.8346
rfoot -18.206 -10.843
rtoes -9.58572
lfemur -27.8317 -2.39941 -10.411
ltibia 43.0504
lfoot -19.4316 -1.80084
ltoes -19.139
